<svg xmlns="http://www.w3.org/2000/svg"  viewBox="0 0 100 100" width="100px" height="100px" clip-rule="evenodd"><path fill="#c7ede6" d="M87.215,56.71C88.35,54.555,89,52.105,89,49.5c0-6.621-4.159-12.257-10.001-14.478 C78.999,35.015,79,35.008,79,35c0-11.598-9.402-21-21-21c-9.784,0-17.981,6.701-20.313,15.757C36.211,29.272,34.638,29,33,29 c-7.692,0-14.023,5.793-14.89,13.252C12.906,43.353,9,47.969,9,53.5C9,59.851,14.149,65,20.5,65c0.177,0,0.352-0.012,0.526-0.022 C21.022,65.153,21,65.324,21,65.5C21,76.822,30.178,86,41.5,86c6.437,0,12.175-2.972,15.934-7.614C59.612,80.611,62.64,82,66,82 c4.65,0,8.674-2.65,10.666-6.518C77.718,75.817,78.837,76,80,76c6.075,0,11-4.925,11-11C91,61.689,89.53,58.727,87.215,56.71z"/><path fill="#fff" d="M71.319,21.979h-10c-0.276,0-0.5-0.224-0.5-0.5s0.224-0.5,0.5-0.5h10c0.276,0,0.5,0.224,0.5,0.5 S71.595,21.979,71.319,21.979z M75.319,21.979h-2c-0.276,0-0.5-0.224-0.5-0.5s0.224-0.5,0.5-0.5h2c0.276,0,0.5,0.224,0.5,0.5 S75.595,21.979,75.319,21.979z M80.319,23.979h-10c-0.276,0-0.5-0.224-0.5-0.5s0.224-0.5,0.5-0.5h10c0.276,0,0.5,0.224,0.5,0.5 S80.596,23.979,80.319,23.979z M68.319,23.979h-1c-0.276,0-0.5-0.224-0.5-0.5s0.224-0.5,0.5-0.5h1c0.276,0,0.5,0.224,0.5,0.5 S68.595,23.979,68.319,23.979z M65.289,23.979h-1.97c-0.276,0-0.5-0.224-0.5-0.5s0.224-0.5,0.5-0.5h1.97 c0.276,0,0.5,0.224,0.5,0.5S65.565,23.979,65.289,23.979z M74.319,19.979h-5c-0.276,0-0.5-0.224-0.5-0.5s0.224-0.5,0.5-0.5h5 c0.276,0,0.5,0.224,0.5,0.5S74.596,19.979,74.319,19.979z M71.319,25.979h-2c-0.276,0-0.5-0.224-0.5-0.5s0.224-0.5,0.5-0.5h2 c0.276,0,0.5,0.224,0.5,0.5S71.595,25.979,71.319,25.979z"/><path fill="#fdfcef" d="M79.638,46.918v0.5h3v-0.5c0,0,4.242,0,5.5,0c2.485,0,4.5-2.015,4.5-4.5 c0-2.333-1.782-4.229-4.055-4.455c0.022-0.181,0.055-0.358,0.055-0.545c0-2.485-2.015-4.5-4.5-4.5 c-1.438,0-2.703,0.686-3.527,1.736c-0.14-2.636-2.302-4.736-4.973-4.736c-2.761,0-5,2.239-5,5c0,0.446,0.077,0.87,0.187,1.282 c-0.642-0.777-1.601-1.282-2.687-1.282c-1.781,0-3.234,1.335-3.455,3.055c-0.181-0.022-0.358-0.055-0.545-0.055 c-2.485,0-4.5,2.015-4.5,4.5s2.015,4.5,4.5,4.5s9.5,0,9.5,0H79.638z"/><path fill="#472b29" d="M75.638,29.418c-3.033,0-5.5,2.467-5.5,5.5c0,0.016,0,0.031,0,0.047 c-0.602-0.355-1.29-0.547-2-0.547c-1.831,0-3.411,1.261-3.858,3.005c-0.047-0.003-0.094-0.005-0.142-0.005c-2.757,0-5,2.243-5,5 s2.243,5,5,5h15.5c0.276,0,0.5-0.224,0.5-0.5s-0.224-0.5-0.5-0.5h-15.5c-2.206,0-4-1.794-4-4s1.794-4,4-4 c0.117,0,0.23,0.017,0.343,0.032l0.141,0.019c0.021,0.003,0.041,0.004,0.062,0.004c0.246,0,0.462-0.185,0.495-0.437 c0.191-1.493,1.463-2.618,2.959-2.618c0.885,0,1.723,0.401,2.301,1.1c0.098,0.118,0.241,0.182,0.386,0.182 c0.078,0,0.156-0.018,0.228-0.056c0.209-0.107,0.314-0.346,0.254-0.573c-0.115-0.435-0.169-0.801-0.169-1.153 c0-2.481,2.019-4.5,4.5-4.5c2.381,0,4.347,1.872,4.474,4.263c0.011,0.208,0.15,0.387,0.349,0.45 c0.05,0.016,0.101,0.024,0.152,0.024c0.15,0,0.296-0.069,0.392-0.192c0.771-0.982,1.912-1.545,3.133-1.545c2.206,0,4,1.794,4,4 c0,0.117-0.017,0.23-0.032,0.343l-0.019,0.141c-0.016,0.134,0.022,0.268,0.106,0.373s0.207,0.172,0.34,0.185 c2.056,0.205,3.605,1.907,3.605,3.958c0,2.206-1.794,4-4,4h-5.5c-0.276,0-0.5,0.224-0.5,0.5s0.224,0.5,0.5,0.5h5.5 c2.757,0,5-2.243,5-5c0-2.397-1.689-4.413-4.003-4.877c0.002-0.041,0.003-0.082,0.003-0.123c0-2.757-2.243-5-5-5 c-1.176,0-2.293,0.416-3.183,1.164C80.357,31.178,78.193,29.418,75.638,29.418L75.638,29.418z"/><path fill="#472b29" d="M74.138,36.418c-1.403,0-2.609,0.999-2.913,2.341c-0.367-0.222-0.786-0.341-1.212-0.341 c-1.202,0-2.198,0.897-2.353,2.068c-0.203-0.046-0.396-0.068-0.584-0.068c-1.529,0-2.811,1.2-2.918,2.732 c-0.01,0.138,0.094,0.258,0.231,0.268c0.006,0,0.012,0,0.018,0c0.13,0,0.24-0.101,0.249-0.232 c0.089-1.271,1.151-2.268,2.419-2.268c0.229,0,0.47,0.042,0.738,0.127c0.022,0.007,0.045,0.01,0.067,0.01 c0.055,0,0.11-0.02,0.156-0.054c0.064-0.046,0.102-0.128,0.102-0.208c0-1.034,0.841-1.875,1.875-1.875 c0.447,0,0.885,0.168,1.231,0.473c0.047,0.041,0.106,0.063,0.165,0.063c0.032,0,0.063-0.006,0.093-0.019 c0.088-0.035,0.148-0.117,0.155-0.212c0.104-1.293,1.193-2.305,2.481-2.305c0.208,0,0.425,0.034,0.682,0.107 c0.023,0.007,0.047,0.01,0.07,0.01c0.109,0,0.207-0.073,0.239-0.182c0.038-0.133-0.039-0.271-0.172-0.309 C74.655,36.458,74.394,36.418,74.138,36.418L74.138,36.418z M88.021,37.918c-1.326,0-2.508,0.897-2.874,2.182 c-0.038,0.133,0.039,0.271,0.172,0.309c0.024,0.006,0.047,0.009,0.069,0.009c0.109,0,0.209-0.072,0.24-0.182 c0.305-1.07,1.289-1.818,2.393-1.818c0.117,0,0.23,0.014,0.342,0.029c0.012,0.002,0.023,0.003,0.035,0.003 c0.121,0,0.229-0.092,0.246-0.217c0.019-0.137-0.077-0.263-0.214-0.281C88.296,37.934,88.16,37.918,88.021,37.918L88.021,37.918 z"/><path fill="#fff" d="M16.5,49h-10C6.224,49,6,48.776,6,48.5S6.224,48,6.5,48h10c0.276,0,0.5,0.224,0.5,0.5	S16.777,49,16.5,49z M19.5,49h-1c-0.276,0-0.5-0.224-0.5-0.5s0.224-0.5,0.5-0.5h1c0.276,0,0.5,0.224,0.5,0.5S19.777,49,19.5,49z M24.491,51H15.5c-0.276,0-0.5-0.224-0.5-0.5s0.224-0.5,0.5-0.5h8.991c0.276,0,0.5,0.224,0.5,0.5S24.767,51,24.491,51z M13.5,51h-1	c-0.276,0-0.5-0.224-0.5-0.5s0.224-0.5,0.5-0.5h1c0.276,0,0.5,0.224,0.5,0.5S13.777,51,13.5,51z M10.5,51h-2	C8.224,51,8,50.776,8,50.5S8.224,50,8.5,50h2c0.276,0,0.5,0.224,0.5,0.5S10.777,51,10.5,51z M16.5,53h-2c-0.276,0-0.5-0.224-0.5-0.5	s0.224-0.5,0.5-0.5h2c0.276,0,0.5,0.224,0.5,0.5S16.776,53,16.5,53z M19.5,44c-0.177,0-0.823,0-1,0c-0.276,0-0.5,0.224-0.5,0.5	s0.224,0.5,0.5,0.5c0.177,0,0.823,0,1,0c0.276,0,0.5-0.224,0.5-0.5S19.776,44,19.5,44z M19.5,46c-0.177,0-4.823,0-5,0	c-0.276,0-0.5,0.224-0.5,0.5s0.224,0.5,0.5,0.5c0.177,0,4.823,0,5,0c0.276,0,0.5-0.224,0.5-0.5S19.776,46,19.5,46z M24.5,48	c-0.177,0-2.823,0-3,0c-0.276,0-0.5,0.224-0.5,0.5s0.224,0.5,0.5,0.5c0.177,0,2.823,0,3,0c0.276,0,0.5-0.224,0.5-0.5	S24.776,48,24.5,48z"/><path fill="#f45834" fill-rule="evenodd" d="M68.883,68.337c-0.097,0-0.192-0.021-0.278-0.058 c-0.005,0-0.039,0-0.05,0c-0.307-0.015-0.567-0.228-0.644-0.525l-2.271-8.854l-0.227,0.692c-0.034,0.105-0.092,0.198-0.166,0.273 c0.01,0.095,0.002,0.192-0.027,0.286c-0.401,1.29-0.809,2.577-1.223,3.863c-0.093,0.289-0.363,0.485-0.667,0.485H41.378 c-0.223,0-0.432-0.106-0.564-0.286c-0.132-0.18-0.17-0.412-0.104-0.624c0.404-1.287,0.812-2.573,1.221-3.859 c0.017-0.052,0.039-0.101,0.066-0.146c-0.002-0.007-1.791-6.894-1.791-6.894l-2.712,9.546c-0.085,0.301-0.361,0.509-0.673,0.509 c-0.003,0-0.007,0-0.01,0c-0.089-0.001-0.175-0.019-0.254-0.051c-0.009,0-6.48,0-6.48,0c-0.32,0-0.6-0.218-0.679-0.528 l-5.085-20.083c-0.053-0.209-0.006-0.432,0.126-0.602c0.132-0.17,0.336-0.27,0.552-0.27h6.462c0.32,0,0.6,0.218,0.679,0.529 l1.534,6.067l2.864-9.643c0.088-0.297,0.361-0.501,0.671-0.501h6.35c0.178,0,0.347,0.068,0.475,0.186 c0.201,0.08,0.358,0.251,0.417,0.469l2.232,8.298l0.114-0.334c0.097-0.284,0.363-0.475,0.663-0.475l6.261,0.002 c0.224,0,0.435,0.108,0.566,0.289c0.132,0.182,0.168,0.415,0.099,0.628l-4.079,12.517h0.049c0.007-0.032,0.016-0.063,0.027-0.094 l4.5-12.415c0.081-0.222,0.266-0.385,0.488-0.441c-0.003-0.004-0.006-0.008-0.009-0.012c-0.131-0.187-0.162-0.426-0.084-0.641 l0.905-2.482c0.101-0.276,0.364-0.46,0.658-0.46c0,0,5.848,0.008,5.848,0.008c0.228,0,0.441,0.112,0.572,0.298 s0.163,0.425,0.085,0.639l-0.893,2.474c-0.08,0.222-0.264,0.384-0.484,0.441c0,0,0.001,0.001,0.001,0.002 c0.131,0.187,0.164,0.425,0.087,0.639l-4.305,12.044h0.325c0.006-0.028,0.013-0.057,0.023-0.084l4.241-12.583 c0.038-0.114,0.104-0.212,0.188-0.29c0.024-0.074,0.062-0.145,0.111-0.208c0.133-0.171,0.337-0.271,0.553-0.271l6.391,0.001 c0.322,0,0.603,0.22,0.68,0.532l2.24,9.073l1.247-3.499c0.099-0.277,0.36-0.463,0.654-0.465c0,0,6.442-0.047,6.443-0.047 c0.229,0,0.443,0.112,0.574,0.3c0.132,0.189,0.162,0.432,0.081,0.647l-5.86,15.535c-0.103,0.272-0.363,0.453-0.655,0.453H68.883z" clip-rule="evenodd"/><path fill="#472b29" d="M37.2,38.363l6.35,0l-6.729,23.682l-3.056-12.116L37.2,38.363 M43.766,38.499l5.618,20.886h-6.716 l-2.288-8.811L43.766,38.499 M31.453,41.911l5.078,20.083h-6.455l-5.085-20.083H31.453 M56.83,43.398l5.847,0.008l-0.893,2.474 h-5.86L56.83,43.398 M63.184,46.507l6.391,0.001l2.701,10.941l-3.687,10.13L63.184,46.507 M47.45,46.507l6.26,0.002L49.598,59.13 l-2.844-10.578L47.45,46.507 M62.995,46.8l2.566,10.087l-0.814,2.487l-5.993,0.008L62.995,46.8 M61.389,46.963h0.005 M61.389,46.963l-4.444,12.432l-5.914-0.008l4.499-12.415L61.389,46.963 M80.838,52.102h0.005 M80.838,52.102l-5.86,15.535h-6.095 L74.4,52.149L80.838,52.102 M64.551,59.941v0.002c0,0,0,0,0,0C64.55,59.942,64.551,59.941,64.551,59.941 M64.551,59.942 c-0.4,1.288-0.807,2.573-1.221,3.856c-7.317,0-14.635,0-21.952,0c0.404-1.286,0.811-2.571,1.22-3.855 C49.916,59.942,57.233,59.943,64.551,59.942 M58.548,60.959l-0.29-0.008l-0.051,0.261h0.285l-0.235,1.149 c-0.008,0.099-0.027,0.221,0.057,0.295c0.082,0.083,0.194,0.102,0.307,0.102c0.076,0,0.152-0.008,0.222-0.012l0.052-0.267 c-0.051,0.011-0.102,0.017-0.154,0.017c-0.047,0-0.093-0.005-0.139-0.017c-0.029-0.047-0.059-0.097-0.041-0.152l0.237-1.118 l0.344,0.008l0.066-0.258l-0.361-0.008l0.107-0.53l-0.294,0.03L58.548,60.959 M43.648,62.52c-0.111,0-0.223-0.028-0.318-0.078 c-0.107-0.055-0.12-0.179-0.155-0.279l-0.263,0.008c-0.026,0.226,0.103,0.463,0.32,0.544c0.125,0.044,0.257,0.067,0.39,0.067 c0.142,0,0.283-0.026,0.414-0.082c0.137-0.06,0.256-0.172,0.302-0.317c0.022-0.135,0.034-0.296-0.066-0.404 c-0.193-0.241-0.53-0.26-0.771-0.431c-0.084-0.05-0.105-0.162-0.062-0.245c0.078-0.101,0.207-0.132,0.332-0.132 c0.039,0,0.077,0.003,0.114,0.008c0.152,0.016,0.29,0.144,0.288,0.302h0.286c0-0.13-0.035-0.263-0.128-0.359 c-0.134-0.158-0.345-0.206-0.545-0.206l0-0.015c-0.029,0-0.057,0.008-0.085,0.008c-0.223,0.019-0.463,0.129-0.553,0.347 c-0.041,0.148-0.037,0.329,0.084,0.44c0.205,0.2,0.511,0.227,0.742,0.386c0.128,0.075,0.109,0.279-0.013,0.352 C43.868,62.493,43.759,62.52,43.648,62.52 M56.129,60.913c-0.007,0-0.014,0-0.021,0c-0.281,0-0.547,0.175-0.661,0.433l0.072-0.385 l-0.281,0l-0.375,1.787h0.29l0.228-0.994c0.045-0.167,0.148-0.318,0.287-0.421c0.131-0.1,0.302-0.109,0.461-0.109l0.059-0.309 c-0.019-0.008-0.039-0.008-0.058-0.008V60.913 M51.632,62.785c0.226,0,0.454-0.083,0.618-0.237 c0.259-0.226,0.366-0.578,0.371-0.913c-0.011-0.184-0.047-0.381-0.183-0.516c-0.135-0.146-0.329-0.197-0.524-0.205v-0.001 c-0.007,0-0.014,0-0.021,0c-0.082,0-0.163,0.009-0.24,0.023c-0.384,0.086-0.675,0.429-0.744,0.809 c-0.069,0.293-0.041,0.644,0.197,0.856C51.253,62.726,51.442,62.785,51.632,62.785 M62.135,62.526 c-0.021,0-0.041-0.001-0.061-0.002c-0.131-0.013-0.283-0.046-0.358-0.166c-0.043-0.054-0.057-0.121-0.067-0.184h-0.258 c-0.008,0.156,0.031,0.324,0.151,0.433c0.13,0.132,0.322,0.157,0.497,0.177c0.016,0,0.031,0.001,0.047,0.001 c0.208,0,0.426-0.045,0.588-0.181c0.182-0.152,0.227-0.46,0.063-0.641c-0.198-0.224-0.52-0.246-0.756-0.411 c-0.111-0.061-0.112-0.244-0.002-0.307c0.082-0.053,0.18-0.073,0.277-0.073c0.039,0,0.078,0.003,0.116,0.009 c0.146,0.02,0.286,0.142,0.274,0.299h0.294c0.011-0.224-0.136-0.438-0.347-0.512c-0.103-0.035-0.214-0.055-0.325-0.055 c-0.001,0-0.002,0-0.003,0h-0.001c-0.186,0.001-0.371,0.056-0.515,0.177c-0.183,0.155-0.204,0.478-0.016,0.637 c0.209,0.179,0.5,0.211,0.723,0.366c0.107,0.063,0.112,0.231,0.024,0.312C62.394,62.501,62.26,62.526,62.135,62.526 M47.899,60.914L47.899,60.914C47.899,60.914,47.899,60.914,47.899,60.914c-0.228,0.003-0.453,0.102-0.58,0.298 c0.013-0.085,0.058-0.252,0.058-0.252l-0.285,0l-0.524,2.448l0.3,0.014l0.192-0.956c0.043,0.153,0.183,0.256,0.334,0.289 c0.075,0.022,0.153,0.032,0.231,0.032c0.186,0,0.372-0.06,0.521-0.172c0.309-0.22,0.457-0.607,0.467-0.976 c-0.01-0.203-0.063-0.421-0.224-0.558C48.254,60.967,48.076,60.914,47.899,60.914 M47.873,61.17L47.873,61.17 c0.084,0.001,0.169,0.02,0.244,0.058c0.144,0.08,0.196,0.252,0.199,0.407c-0.004,0.269-0.096,0.548-0.301,0.73 c-0.109,0.101-0.259,0.16-0.407,0.16c-0.076,0-0.151-0.015-0.22-0.048c-0.175-0.083-0.249-0.294-0.232-0.476 c0.033-0.309,0.179-0.638,0.472-0.78C47.704,61.186,47.789,61.17,47.873,61.17 M51.856,61.17c0.139,0,0.277,0.052,0.366,0.164 c0.08,0.094,0.092,0.219,0.106,0.337c-0.013,0.307-0.144,0.634-0.422,0.792c-0.076,0.043-0.163,0.064-0.25,0.064 c-0.211,0-0.423-0.122-0.472-0.342c-0.047-0.331,0.066-0.705,0.344-0.908c0.089-0.066,0.201-0.098,0.314-0.106v0 C51.845,61.17,51.85,61.17,51.856,61.17 M37.2,36.963c-0.62,0-1.166,0.407-1.342,1.001l-2.138,7.2l-0.909-3.597 c-0.157-0.622-0.716-1.057-1.357-1.057h-6.462c-0.432,0-0.84,0.199-1.105,0.54c-0.265,0.341-0.358,0.785-0.252,1.204l5.085,20.083 c0.157,0.621,0.716,1.056,1.357,1.056h6.368c0.114,0.032,0.233,0.049,0.356,0.051c0.007,0,0.014,0,0.021,0 c0.625,0,1.175-0.415,1.346-1.017l2.009-7.069l1.084,4.172c-0.409,1.282-0.815,2.564-1.218,3.848 c-0.133,0.425-0.056,0.889,0.207,1.248c0.264,0.359,0.683,0.571,1.128,0.571H63.33c0.608,0,1.146-0.392,1.333-0.971 c0.303-0.939,0.602-1.88,0.897-2.821l1.673,6.521c0.148,0.578,0.646,0.996,1.236,1.047c0.133,0.041,0.272,0.063,0.414,0.063h6.095 c0.583,0,1.104-0.361,1.31-0.906l5.832-15.461c0.078-0.174,0.121-0.366,0.121-0.568c0-0.773-0.624-1.4-1.397-1.4h-0.002 c-0.001,0-0.002,0-0.003,0c-0.003,0-0.007,0-0.01,0l-6.438,0.047c-0.588,0.004-1.111,0.376-1.309,0.93l-0.465,1.306l-1.682-6.813 c-0.154-0.625-0.715-1.064-1.359-1.064l-6.023-0.001l0.443-1.227c0.155-0.429,0.091-0.906-0.171-1.279 c-0.262-0.373-0.689-0.596-1.144-0.596l-5.847-0.008c-0.001,0-0.001,0-0.002,0c-0.588,0-1.114,0.368-1.315,0.92L54.61,45.4 c-0.003,0.009-0.007,0.019-0.01,0.028c-0.248-0.204-0.561-0.319-0.889-0.319l-6.26-0.002c0,0,0,0,0,0 c-0.152,0-0.299,0.024-0.438,0.07l-1.894-7.042c-0.105-0.392-0.371-0.708-0.715-0.883c-0.242-0.185-0.541-0.289-0.852-0.289 L37.2,36.963L37.2,36.963z M80.838,53.502h0.005H80.838L80.838,53.502z M64.551,61.342h0.005H64.551L64.551,61.342z M64.551,61.342h0.005H64.551L64.551,61.342z"/><polyline fill="none" stroke="#472b29" stroke-linecap="round" stroke-linejoin="round" stroke-miterlimit="10" stroke-width=".25" points="75.177,64.277 74.287,66.637 71.904,66.637" clip-rule="evenodd"/><line x1="76.455" x2="75.388" y1="60.887" y2="63.716" fill="none" stroke="#472b29" stroke-linecap="round" stroke-linejoin="round" stroke-miterlimit="10" stroke-width=".25" clip-rule="evenodd"/><line x1="76.908" x2="76.663" y1="59.686" y2="60.337" fill="none" stroke="#472b29" stroke-linecap="round" stroke-linejoin="round" stroke-miterlimit="10" stroke-width=".25" clip-rule="evenodd"/><polyline fill="none" stroke="#472b29" stroke-linecap="round" stroke-linejoin="round" stroke-miterlimit="10" stroke-width=".25" points="78.487,53.123 79.388,53.113 77.379,58.439" clip-rule="evenodd"/><line x1="76.747" x2="78.008" y1="53.132" y2="53.123" fill="none" stroke="#472b29" stroke-linecap="round" stroke-linejoin="round" stroke-miterlimit="10" stroke-width=".25" clip-rule="evenodd"/><polyline fill="none" stroke="#472b29" stroke-linecap="round" stroke-linejoin="round" stroke-miterlimit="10" stroke-width=".25" points="74.412,55.094 75.107,53.144 76.029,53.137" clip-rule="evenodd"/><line x1="74.065" x2="74.226" y1="56.069" y2="55.617" fill="none" stroke="#472b29" stroke-linecap="round" stroke-linejoin="round" stroke-miterlimit="10" stroke-width=".25" clip-rule="evenodd"/><line x1="67.307" x2="67.009" y1="58.559" y2="57.394" fill="none" stroke="#472b29" stroke-linecap="round" stroke-linejoin="round" stroke-miterlimit="10" stroke-width=".25" clip-rule="evenodd"/><line x1="68.293" x2="67.482" y1="62.403" y2="59.241" fill="none" stroke="#472b29" stroke-linecap="round" stroke-linejoin="round" stroke-miterlimit="10" stroke-width=".25" clip-rule="evenodd"/><line x1="68.754" x2="68.486" y1="64.201" y2="63.152" fill="none" stroke="#472b29" stroke-linecap="round" stroke-linejoin="round" stroke-miterlimit="10" stroke-width=".25" clip-rule="evenodd"/><line x1="70.489" x2="70.984" y1="54.383" y2="56.39" fill="none" stroke="#472b29" stroke-linecap="round" stroke-linejoin="round" stroke-miterlimit="10" stroke-width=".25" clip-rule="evenodd"/><line x1="70.117" x2="70.354" y1="52.88" y2="53.837" fill="none" stroke="#472b29" stroke-linecap="round" stroke-linejoin="round" stroke-miterlimit="10" stroke-width=".25" clip-rule="evenodd"/><polyline fill="none" stroke="#472b29" stroke-linecap="round" stroke-linejoin="round" stroke-miterlimit="10" stroke-width=".25" points="65.723,47.508 68.791,47.508 69.925,52.102" clip-rule="evenodd"/><line x1="64.473" x2="64.894" y1="47.507" y2="47.507" fill="none" stroke="#472b29" stroke-linecap="round" stroke-linejoin="round" stroke-miterlimit="10" stroke-width=".25" clip-rule="evenodd"/><line x1="28.876" x2="26.276" y1="53.18" y2="42.911" fill="#f45834" fill-rule="evenodd" stroke="#472b29" stroke-linecap="round" stroke-linejoin="round" stroke-miterlimit="10" stroke-width=".25" clip-rule="evenodd"/><line x1="29.738" x2="29.227" y1="56.584" y2="54.568" fill="#f45834" fill-rule="evenodd" stroke="#472b29" stroke-linecap="round" stroke-linejoin="round" stroke-miterlimit="10" stroke-width=".25" clip-rule="evenodd"/><line x1="29.516" x2="30.761" y1="42.911" y2="42.911" fill="#f45834" fill-rule="evenodd" stroke="#472b29" stroke-linecap="round" stroke-linejoin="round" stroke-miterlimit="10" stroke-width=".25" clip-rule="evenodd"/><line x1="28.556" x2="28.931" y1="42.911" y2="42.911" fill="#f45834" fill-rule="evenodd" stroke="#472b29" stroke-linecap="round" stroke-linejoin="round" stroke-miterlimit="10" stroke-width=".25" clip-rule="evenodd"/><line x1="26.276" x2="27.87" y1="42.911" y2="42.911" fill="#f45834" fill-rule="evenodd" stroke="#472b29" stroke-linecap="round" stroke-linejoin="round" stroke-miterlimit="10" stroke-width=".25" clip-rule="evenodd"/><line x1="55.378" x2="56.232" y1="50.328" y2="47.971" fill="none" stroke="#472b29" stroke-linecap="round" stroke-linejoin="round" stroke-miterlimit="10" stroke-width=".25" clip-rule="evenodd"/><line x1="53.664" x2="54.88" y1="55.058" y2="51.702" fill="none" stroke="#472b29" stroke-linecap="round" stroke-linejoin="round" stroke-miterlimit="10" stroke-width=".25" clip-rule="evenodd"/><line x1="52.988" x2="53.159" y1="56.923" y2="56.451" fill="none" stroke="#472b29" stroke-linecap="round" stroke-linejoin="round" stroke-miterlimit="10" stroke-width=".25" clip-rule="evenodd"/><line x1="58.712" x2="59.073" y1="47.968" y2="47.965" fill="none" stroke="#472b29" stroke-linecap="round" stroke-linejoin="round" stroke-miterlimit="10" stroke-width=".25" clip-rule="evenodd"/><line x1="56.232" x2="58.101" y1="47.971" y2="47.968" fill="none" stroke="#472b29" stroke-linecap="round" stroke-linejoin="round" stroke-miterlimit="10" stroke-width=".25" clip-rule="evenodd"/><line x1="43.746" x2="45.421" y1="42.274" y2="48.5" fill="none" stroke="#472b29" stroke-linecap="round" stroke-linejoin="round" stroke-miterlimit="10" stroke-width=".25" clip-rule="evenodd"/><line x1="62.333" x2="62.552" y1="51.895" y2="51.244" fill="none" stroke="#472b29" stroke-linecap="round" stroke-linejoin="round" stroke-miterlimit="10" stroke-width=".25" clip-rule="evenodd"/><line x1="60.147" x2="62.067" y1="58.38" y2="52.682" fill="none" stroke="#472b29" stroke-linecap="round" stroke-linejoin="round" stroke-miterlimit="10" stroke-width=".25" clip-rule="evenodd"/><line x1="41.866" x2="41.782" y1="40.631" y2="40.929" fill="none" stroke="#472b29" stroke-linecap="round" stroke-linejoin="round" stroke-miterlimit="10" stroke-width=".25" clip-rule="evenodd"/><polyline fill="none" stroke="#472b29" stroke-linecap="round" stroke-linejoin="round" stroke-miterlimit="10" stroke-width=".25" points="36.575,43.98 37.946,39.363 42.227,39.363 42.018,40.096" clip-rule="evenodd"/><line x1="35.864" x2="36.332" y1="46.374" y2="44.8" fill="none" stroke="#472b29" stroke-linecap="round" stroke-linejoin="round" stroke-miterlimit="10" stroke-width=".25" clip-rule="evenodd"/><polyline fill="none" stroke="#472b29" stroke-linecap="round" stroke-linejoin="round" stroke-miterlimit="10" stroke-width=".25" points="50.968,47.508 52.333,47.509 51.639,49.639" clip-rule="evenodd"/><line x1="49.935" x2="50.254" y1="47.508" y2="47.508" fill="none" stroke="#472b29" stroke-linecap="round" stroke-linejoin="round" stroke-miterlimit="10" stroke-width=".25" clip-rule="evenodd"/><line x1="48.166" x2="49.384" y1="47.507" y2="47.508" fill="none" stroke="#472b29" stroke-linecap="round" stroke-linejoin="round" stroke-miterlimit="10" stroke-width=".25" clip-rule="evenodd"/><polyline fill="none" stroke="#472b29" stroke-linecap="round" stroke-linejoin="round" stroke-miterlimit="10" stroke-width=".25" points="57.354,44.879 57.53,44.398 61.254,44.403" clip-rule="evenodd"/><g><path fill="#fdfcef" d="M33,70.5c0,0,1.567,0,3.5,0S40,68.933,40,67c0-1.781-1.335-3.234-3.055-3.455 C36.973,63.366,37,63.187,37,63c0-1.933-1.567-3.5-3.5-3.5c-1.032,0-1.95,0.455-2.59,1.165C30.526,58.857,28.923,57.5,27,57.5 c-2.209,0-4,1.791-4,4c0,0.191,0.03,0.374,0.056,0.558C22.628,61.714,22.092,61.5,21.5,61.5c-1.228,0-2.245,0.887-2.455,2.055 C18.866,63.527,18.687,63.5,18.5,63.5c-1.933,0-3.5,1.567-3.5,3.5s1.567,3.5,3.5,3.5s7.5,0,7.5,0V71h7V70.5z"/><path fill="#472b29" d="M34.75,66c-0.138,0-0.25-0.112-0.25-0.25c0-1.223,0.995-2.218,2.218-2.218 c0.034,0.009,0.737-0.001,1.244,0.136c0.133,0.036,0.212,0.173,0.176,0.306c-0.036,0.134-0.173,0.213-0.306,0.176 c-0.444-0.12-1.1-0.12-1.113-0.118c-0.948,0-1.719,0.771-1.719,1.718C35,65.888,34.888,66,34.75,66z M28,70 c-0.276,0-0.5,0.224-0.5,0.5S27.724,71,28,71s0.5-0.224,0.5-0.5S28.276,70,28,70z"/><path fill="#472b29" d="M36.5,71H33c-0.276,0-0.5-0.224-0.5-0.5S32.724,70,33,70h3.5c1.654,0,3-1.346,3-3 c0-1.496-1.125-2.768-2.618-2.959c-0.134-0.018-0.255-0.088-0.336-0.196s-0.115-0.244-0.094-0.377 C36.475,63.314,36.5,63.16,36.5,63c0-1.654-1.346-3-3-3c-0.85,0-1.638,0.355-2.219,1c-0.125,0.139-0.321,0.198-0.5,0.148 c-0.182-0.049-0.321-0.195-0.36-0.379C30.08,59.165,28.641,58,27,58c-1.93,0-3.5,1.57-3.5,3.5c0,0.143,0.021,0.28,0.041,0.418 c0.029,0.203-0.063,0.438-0.242,0.54s-0.396,0.118-0.556-0.01C22.378,62.155,21.949,62,21.5,62c-0.966,0-1.792,0.691-1.963,1.644 c-0.048,0.267-0.296,0.446-0.569,0.405C18.814,64.025,18.66,64,18.5,64c-1.654,0-3,1.346-3,3s1.346,3,3,3H26 c0.276,0,0.5,0.224,0.5,0.5S26.276,71,26,71h-7.5c-2.206,0-4-1.794-4-4s1.794-4,4-4c0.059,0,0.116,0.002,0.174,0.006 C19.088,61.82,20.211,61,21.5,61c0.349,0,0.689,0.061,1.011,0.18C22.676,58.847,24.626,57,27,57c1.831,0,3.466,1.127,4.153,2.774 C31.833,59.276,32.655,59,33.5,59c2.206,0,4,1.794,4,4c0,0.048-0.001,0.095-0.004,0.142C39.239,63.59,40.5,65.169,40.5,67 C40.5,69.206,38.706,71,36.5,71z"/><path fill="#472b29" d="M31,70c-0.159,0-0.841,0-1,0c-0.276,0-0.5,0.224-0.5,0.5S29.724,71,30,71c0.159,0,0.841,0,1,0 c0.276,0,0.5-0.224,0.5-0.5S31.276,70,31,70z"/></g></svg>